# xmcd
#
# Track frame offsets:
#	150
#	14955
#	30502
#	49662
#	64665
#	78787
#	91705
#	107157
#	123045
#	143992
#	160135
#	180405
#	193892
#	206260
#	221767
#	235935
#	252157
#	270502
#
# Disc length: 3804 seconds
#
# Revision: 1
# Processed by: cddbd v1.5.1PL0 Copyright (c) Steve Scherf et al.
# Submitted via: audiograbber 1.83.01
#
DISCID=f00eda12
DTITLE=Tom Dundee - Very best of 
DYEAR=1900
DGENRE=Thai
TTITLE0=Yang nee tong tee kao
TTITLE1=Sao Morn mae muey
TTITLE2=Kun-mark khon jon
TTITLE3=Tum boon ruam chard
TTITLE4=Por kae mae thao
TTITLE5=Kwam hai
TTITLE6=Poo ying nah ngern
TTITLE7=Sao Hippy
TTITLE8=Nok kao jai ngai
TTITLE9=Tui Tui
TTITLE10=Suek mee nam jai
TTITLE11=Roi jung hoo
TTITLE12=Sas-sa-na music
TTITLE13=Mun kiew
TTITLE14=Ruk lae huang yai
TTITLE15=Suwanna hong
TTITLE16=Rien kla harn
TTITLE17=Pattanee
EXTD=
EXTT0=
EXTT1=
EXTT2=
EXTT3=
EXTT4=
EXTT5=
EXTT6=
EXTT7=
EXTT8=
EXTT9=
EXTT10=
EXTT11=
EXTT12=
EXTT13=
EXTT14=
EXTT15=
EXTT16=
EXTT17=
PLAYORDER=
